<svg xmlns="http://www.w3.org/2000/svg" width="192" height="192" viewBox="0 0 192 192">
  <defs>
    <linearGradient id="bg" x1="0" y1="0" x2="1" y2="1">
      <stop offset="0%" stop-color="#4CAF50"/>
      <stop offset="100%" stop-color="#2E7D32"/>
    </linearGradient>
  </defs>
  <rect width="192" height="192" rx="32" fill="url(#bg)"/>
  <!-- Grass blade -->
  <path d="M96 160 C96 110 68 80 52 60 C44 50 40 40 42 32 C48 42 60 50 72 56 C60 72 56 90 60 104 C68 88 82 76 96 72 Z" fill="#C8E6C9" opacity="0.9"/>
  <path d="M96 160 C96 110 124 80 140 60 C148 50 152 40 150 32 C144 42 132 50 120 56 C132 72 136 90 132 104 C124 88 110 76 96 72 Z" fill="#A5D6A7" opacity="0.9"/>
  <path d="M96 160 C96 120 110 94 126 78 L126 78 C116 88 104 100 96 116 C88 100 76 88 66 78 C82 94 96 120 96 160 Z" fill="#66BB6A" opacity="0.95"/>
  <!-- Letter L -->
  <text x="96" y="148" font-family="Arial, sans-serif" font-weight="900" font-size="72" fill="white" text-anchor="middle" dominant-baseline="middle">L</text>
</svg>
