<svg xmlns="http://www.w3.org/2000/svg" width="512" height="512" viewBox="0 0 512 512">
  <defs>
    <linearGradient id="bg" x1="0" y1="0" x2="1" y2="1">
      <stop offset="0%" stop-color="#4CAF50"/>
      <stop offset="100%" stop-color="#2E7D32"/>
    </linearGradient>
  </defs>
  <rect width="512" height="512" rx="64" fill="url(#bg)"/>
  <!-- Grass blade -->
  <path d="M256 420 C256 300 180 220 140 160 C116 130 106 100 110 80 C128 110 160 130 190 150 C160 190 148 240 160 280 C180 240 220 210 256 200 Z" fill="#C8E6C9" opacity="0.9"/>
  <path d="M256 420 C256 300 332 220 372 160 C396 130 406 100 402 80 C384 110 352 130 322 150 C352 190 364 240 352 280 C332 240 292 210 256 200 Z" fill="#A5D6A7" opacity="0.9"/>
  <path d="M256 420 C256 320 292 256 336 214 L336 214 C312 236 280 268 256 308 C232 268 200 236 176 214 C220 256 256 320 256 420 Z" fill="#66BB6A" opacity="0.95"/>
  <!-- Letter L -->
  <text x="256" y="390" font-family="Arial, sans-serif" font-weight="900" font-size="200" fill="white" text-anchor="middle" dominant-baseline="middle">L</text>
</svg>
